<?xml version="1.0" encoding="utf-8"?>
<!-- Generator: Adobe Illustrator 16.0.0, SVG Export Plug-In . SVG Version: 6.00 Build 0)  -->
<!DOCTYPE svg PUBLIC "-//W3C//DTD SVG 1.1//EN" "http://www.w3.org/Graphics/SVG/1.1/DTD/svg11.dtd">
<svg version="1.1" id="Layer_1" xmlns="http://www.w3.org/2000/svg" xmlns:xlink="http://www.w3.org/1999/xlink" x="0px" y="0px"
	 width="537px" height="409px" viewBox="0 0 537 409" enable-background="new 0 0 537 409" xml:space="preserve">
<path fill="#FFFFFF" d="M209.795,404.494c-29.979,0-59.6-10.916-85.667-31.566c-24.732-19.594-44.792-47.186-56.483-77.691
	c-11.742-30.635-14.739-62.783-8.667-92.97c6.818-33.896,24.416-63.788,52.305-88.847c28.222-25.358,61.473-37.686,101.655-37.686
	c42.479,0,87.18,13.56,130.41,26.673c41.746,12.663,81.177,24.624,117.443,24.624c27.803,0,50.804-7.268,70.003-22.171
	c-18.45,33.654-50.36,49.414-99.56,49.414c-28.699,0-60.25-5.149-90.763-10.128c-30.364-4.956-59.046-9.636-85.058-9.636
	c-30.789,0-52.309,6.641-67.721,20.899c-46.229,42.766-30.963,77.661-9.834,125.958c13.819,31.59,30.972,70.795,35.67,123.133
	C211.844,404.5,209.795,404.494,209.795,404.494z"/>
<g>
	<path fill="#FFFFFF" d="M58.488,202.168c-6.091,30.279-3.086,62.523,8.69,93.248c11.724,30.588,31.838,58.254,56.64,77.902
		c3.146,2.492,6.345,4.84,9.589,7.049c19.792-48.66,26.881-117.422,21.258-206.299c-2.082-32.908-6.799-60.2-12.77-82.59
		c-10.958,5.675-21.249,12.854-30.947,21.569C82.978,138.18,65.328,168.165,58.488,202.168z"/>
	<path fill="#FFFFFF" d="M121.955,375.67c-25.217-19.977-45.665-48.098-57.578-79.18c-25.997-67.83-9.336-137.24,44.567-185.674
		c10.066-9.044,20.755-16.465,32.147-22.302C123.976,26.717,97.386,3.599,91.964,3.786C84.53,4.042,25.026,38.873,14.392,174.287
		c-7.311,93.098,7.224,164.93,43.606,215.495l71.512-0.434c0.932-2.008,1.831-4.07,2.715-6.154
		C128.747,380.846,125.321,378.338,121.955,375.67z"/>
</g>
<path fill="#FFFFFF" d="M209.795,404.494c-29.979,0-59.6-10.916-85.667-31.566c-24.732-19.594-44.792-47.186-56.483-77.691
	c-11.742-30.635-14.739-62.783-8.667-92.97c6.818-33.896,24.416-63.788,52.305-88.847c28.222-25.358,61.473-37.686,101.655-37.686
	c42.479,0,87.18,13.56,130.41,26.673c41.746,12.663,81.177,24.624,117.443,24.624c27.803,0,50.804-7.268,70.003-22.171
	c-18.45,33.654-50.36,49.414-99.56,49.414c-28.699,0-60.25-5.149-90.763-10.128c-30.364-4.956-59.046-9.636-85.058-9.636
	c-30.789,0-52.309,6.641-67.721,20.899c-46.229,42.766-30.963,77.661-9.834,125.958c13.819,31.59,30.972,70.795,35.67,123.133
	C211.844,404.5,209.795,404.494,209.795,404.494z"/>
<g>
	<path fill="#FFFFFF" d="M181.469,293.068c0.17,22.938,9.238,39.656,3.953,47.527c1.089-3.627-16.922-11.662-20.221,5.051
		c-6.453,32.693,9.779,51.797,48.68,57.324c-4.52-47.719-19.333-84.463-32.366-114.475
		C181.475,289.939,181.457,291.455,181.469,293.068z"/>
	<path fill="#FFFFFF" d="M242.715,346.725c-10.854-5.182,4.637-35.844,4.018-53.656c-0.254-7.285-2.709-20.562-2.709-27.229
		c0-5.047,2.709-15.555-5.608-19.586c-0.915-4.16,2.991-7.078,2.94-12.896c-0.053-5.819-1.674-8.966-1.572-12.507
		c0.101-3.539,7.597-5.854,9.539-11.011c0.022-0.019-1.646-6.146-1.942-6.146c-1.466-1.174-6.949-1.174-6.949-1.174
		c-3.622-5.974-8.122-9.943-13.501-11.906c-2.189-8.305-6.847-17.194-8.708-17.255c-1.771-0.058-5,9.478-6.378,16.998
		c-0.586,0-0.878,0-0.878,0c-0.101-0.063-1.69-0.063-4.769,0c-0.027,0.021-0.055,0.043-0.08,0.064
		c0.009-0.014,0.019-0.028,0.027-0.043c-11.689-8.725-18.81-12.428-21.358-11.109c-3.632,1.879-3.283,16.784,5.184,24.447
		c0.015,0.003,0.03,0.006,0.045,0.009c-3.889,19.493,3.03,40.523,0.007,42.529c-2.688,1.785-5.869,6.436-3.902,14.541
		c0.783,3.229-2.927,6.961-4.221,21.072c13.65,31.219,30.164,69.797,34.984,120.98c30.79-3.23,46.193-19.344,46.193-48.354
		C263.076,335.037,240.43,342.08,242.715,346.725z"/>
</g>
</svg>
