<?xml version="1.0" encoding="utf-8"?>
<!-- Generator: Adobe Illustrator 16.0.0, SVG Export Plug-In . SVG Version: 6.00 Build 0)  -->
<!DOCTYPE svg PUBLIC "-//W3C//DTD SVG 1.1//EN" "http://www.w3.org/Graphics/SVG/1.1/DTD/svg11.dtd">
<svg version="1.1" id="Layer_1" xmlns="http://www.w3.org/2000/svg" xmlns:xlink="http://www.w3.org/1999/xlink" x="0px" y="0px"
	 width="1198px" height="404px" viewBox="0 0 1198 404" enable-background="new 0 0 1198 404" xml:space="preserve">
<title>Logo_V1_larger</title>
<desc>Created with Sketch.</desc>
<g id="Page-1">
	<g id="Logo-final-version" transform="translate(-94.000000, -389.000000)">
		<g id="Logo_V1_larger" transform="translate(82.000000, 386.000000)">
			<g id="LogoTypeOnly" transform="translate(221.000000, 226.000000)">
				<path id="wave-top" fill="#CCF6FF" d="M486.971,45.157C336.604,2.351,86.53,21.959,0,100.602
					C102.195,62,288.77,33.424,475.076,70.09C579.207,90.583,884.865,143.741,989,33.424
					C806.363,97.868,560.119,65.981,486.971,45.157z"/>
				<path id="logo" fill="#333333" d="M867.002,83.497c0,11.067-4.058,19.751-12.173,26.052c-8.114,6.301-18.478,9.451-31.088,9.451
					c-9.979,0-19.629-2.739-28.95-8.218c-4.605-2.85-8.389-6.876-11.35-12.081S779,87.552,779,80.867l20.726-0.986
					c0,5.918,2.522,10.52,7.566,13.807c5.044,3.288,10.637,4.932,16.778,4.932c13.707,0,20.561-4.821,20.561-14.465
					c0-7.889-4.66-12.546-13.981-13.971l-19.081-1.973c-9.54-1.424-17.106-4.82-22.699-10.19
					c-5.593-5.369-8.389-13.095-8.389-23.175c0-10.082,4.002-18.409,12.008-24.984C800.493,3.287,810.609,0,822.836,0
					c12.228,0,22.069,3.096,29.526,9.287c7.456,6.19,11.185,14.162,11.185,23.914l-20.396,0.986
					c-1.864-9.533-8.279-14.299-19.245-14.299c-6.689,0-11.925,1.424-15.708,4.273c-3.784,2.849-5.676,6.218-5.676,10.107
					c0,3.891,1.371,6.959,4.112,9.205c2.742,2.246,6.142,3.643,10.198,4.191l18.752,1.973
					C856.529,52.487,867.002,63.773,867.002,83.497z M981,21.367h-31.417v96.646h-22.864V21.367h-31.253V0.986H981V21.367z"/>
				<path id="wave-bottom" fill="#8ACFE6" d="M548.489,97.018C392.569,66,124.959,45.307,7,118.702
					c281.425-33.083,369.771-21.685,490.396-13.579c54.444,3.658,160.446,28.089,284.567,21.868
					C861.369,123.011,937.891,106.902,983,66C916.401,105.123,776.186,142.313,548.489,97.018z"/>
				<path id="logo_1_" fill="#333333" d="M133.062,21.367H91.819c-4.819,0-8.188,0.932-10.105,2.795
					c-1.917,1.862-2.875,5.095-2.875,9.697v16.271h42.885l-1.643,20.381H78.839v47.502H56V24.818c0-8.656,1.89-14.792,5.669-18.408
					c3.779-3.616,10.269-5.424,19.471-5.424h51.922V21.367z M258.273,54.076v8.875c0,19.615-3.697,33.859-11.091,42.735
					S227.931,119,211.609,119s-28.124-4.438-35.409-13.313s-10.927-23.285-10.927-43.228v-8.547c0-18.19,3.697-31.723,11.091-40.599
					S195.479,0,211.527,0s27.851,4.492,35.409,13.479C254.494,22.463,258.273,35.996,258.273,54.076z M235.435,62.459v-6.082
					c0-10.52-1.314-18.902-3.943-25.147c-3.067-7.232-9.64-10.849-19.717-10.849c-10.188,0-16.814,3.616-19.882,10.849
					c-2.519,5.917-3.779,14.3-3.779,25.147v6.082c0,14.135,1.972,23.668,5.915,28.599c1.534,2.082,3.807,3.863,6.819,5.342
					c3.012,1.479,6.627,2.22,10.844,2.22c4.218,0,7.805-0.713,10.763-2.137c2.957-1.425,5.258-3.178,6.9-5.26
					c1.644-2.082,2.903-4.821,3.779-8.219C234.668,77.635,235.435,70.787,235.435,62.459z M390.223,118.014h-28.262l-24.482-40.763
					l-24.153,40.763h-28.262l39.271-59.993L287.528,0.986h28.098l21.853,37.804L359.66,0.986h27.934l-36.806,57.034L390.223,118.014
					z M481.751,72.649h21.196c0,14.902-3.725,26.353-11.174,34.352c-7.448,8-17.964,11.999-31.547,11.999
					c-29.905,0-44.857-17.587-44.857-52.762v-9.861c0-27.723,7.668-45.09,23.004-52.104C444.397,1.424,451.682,0,460.227,0
					c12.487,0,22.647,3.424,30.479,10.273c7.832,6.848,11.748,16.737,11.748,29.667h-21.36c-1.205-6.465-3.341-11.341-6.408-14.628
					s-7.887-4.932-14.459-4.932c-7.668,0-13.364,2.411-17.089,7.232c-2.629,3.396-4.162,9.205-4.601,17.423
					c-0.219,2.63-0.328,6.19-0.328,10.684v10.19c0,12.602,1.752,21.203,5.258,25.806c3.614,4.602,9.229,6.903,16.842,6.903
					s12.871-2.109,15.773-6.328C478.985,88.072,480.875,81.525,481.751,72.649z M627.666,54.076v8.875
					c0,19.615-3.697,33.859-11.091,42.735C609.181,114.562,597.323,119,581.002,119s-28.124-4.438-35.409-13.313
					c-7.284-8.876-10.927-23.285-10.927-43.228v-8.547c0-18.19,3.697-31.723,11.092-40.599C553.151,4.438,564.872,0,580.92,0
					s27.851,4.492,35.408,13.479C623.887,22.463,627.666,35.996,627.666,54.076z M604.827,62.459v-6.082
					c0-10.52-1.314-18.902-3.943-25.147c-3.067-7.232-9.64-10.849-19.718-10.849c-10.188,0-16.814,3.616-19.881,10.849
					c-2.52,5.917-3.779,14.3-3.779,25.147v6.082c0,14.135,1.972,23.668,5.915,28.599c1.533,2.082,3.807,3.863,6.818,5.342
					c3.013,1.479,6.628,2.22,10.845,2.22c4.218,0,7.805-0.713,10.763-2.137c2.957-1.425,5.258-3.178,6.9-5.26
					c1.644-2.082,2.903-4.821,3.779-8.219C604.061,77.635,604.827,70.787,604.827,62.459z M756,118.014h-23.825l-6.572-20.217
					h-39.271l-6.407,20.217H656.1l37.463-107.166c1.643-3.725,3.478-6.301,5.504-7.725c2.026-1.425,4.519-2.137,7.477-2.137
					c2.957,0,5.34,0.657,7.147,1.973c1.808,1.314,3.423,3.944,4.847,7.889L756,118.014z M720.345,78.566l-13.802-46.352
					l-14.46,46.352H720.345z"/>
			</g>
			<path id="surfboard" fill="#8ACFE6" d="M58.118,389.281C21.736,338.717,7.201,266.885,14.512,173.786
				C25.146,38.372,84.65,3.541,92.084,3.285s54.666,43.277,62.701,170.283c5.978,94.489-2.407,166.249-25.155,215.28L58.118,389.281
				z"/>
			<g id="Fox" transform="translate(54.000000, 73.000000)">
				<path id="Combined-Shape" fill="#B33C00" d="M173.05,117.113c5.379,1.963,9.879,5.932,13.501,11.906c0,0,5.483,0,6.949,1.174
					c0.297,0,1.965,6.127,1.942,6.146c-1.942,5.157-9.438,7.471-9.539,11.011s1.52,6.688,1.572,12.507
					c0.052,5.818-3.855,8.737-2.94,12.896c8.317,4.032,5.609,14.54,5.609,19.587c0,6.665,2.455,19.943,2.708,27.229
					c0.62,17.811-14.871,48.474-4.017,53.655c-2.285-4.645,20.362-11.687,20.362,7.769c0,29.735-16.175,45.928-48.523,48.579
					c-39.393-5.4-55.844-24.542-49.353-57.426c3.527-17.869,23.874-7.449,19.715-4.37c6.341-7.562-3.272-24.589-3.447-48.207
					c-0.174-23.619,5.61-28.319,4.65-32.275c-1.966-8.105,1.214-12.756,3.902-14.54c3.024-2.006-3.895-23.037-0.006-42.53
					c-0.015-0.003-0.03-0.006-0.045-0.009c-8.467-7.663-8.816-22.568-5.184-24.447c2.549-1.319,9.669,2.384,21.359,11.109
					c-0.009,0.015-0.019,0.029-0.028,0.043c0.026-0.021,0.053-0.043,0.08-0.064c3.079-0.063,4.668-0.063,4.769,0
					c0,0,0.292,0,0.878,0c1.378-7.52,4.608-17.056,6.378-16.998C166.203,99.919,170.861,108.808,173.05,117.113z"/>
				<path id="Path-4" fill="#E35300" stroke="#FFFFFF" stroke-width="2" d="M161.828,332.993c0.001,0.016-5.918,0-5.918,0
					c-123.976,0-222.063-184.744-99.844-294.562C186.991-79.21,377.525,121.673,483,23.554
					c-59.176,133.077-272.379-9.974-347.829,59.823C59.722,153.174,150.757,198.994,161.828,332.993z"/>
			</g>
		</g>
	</g>
</g>
</svg>
