<?xml version="1.0" encoding="utf-8"?>
<!-- Generator: Adobe Illustrator 16.0.0, SVG Export Plug-In . SVG Version: 6.00 Build 0)  -->
<!DOCTYPE svg PUBLIC "-//W3C//DTD SVG 1.1//EN" "http://www.w3.org/Graphics/SVG/1.1/DTD/svg11.dtd">
<svg version="1.1" xmlns="http://www.w3.org/2000/svg" xmlns:xlink="http://www.w3.org/1999/xlink" x="0px" y="0px"
	 width="668.966px" height="554.972px" viewBox="0 0 668.966 554.972" enable-background="new 0 0 668.966 554.972"
	 xml:space="preserve">
<g id="New_Layer">
	<path fill-rule="evenodd" clip-rule="evenodd" fill="#64AAC5" d="M55.594,531.816C23.532,446.95,14.926,341.923,29.776,216.732
		C51.376,34.642,112.761,8.371,121.833,8.551c9.071,0.182,64.735,43.748,66.415,215.806c1.25,128.007-13.848,230.493-45.293,307.459
		H55.594z"/>
	<path fill-rule="evenodd" clip-rule="evenodd" fill="#C8E3EE" d="M149.189,35.668c-45.165,62.916-73.93,124.796-86.297,183.639
		c-18.549,88.264-18.757,171.605,8.516,312.312c0,0,40.387,0,36.835,0c-18.476-116.231-25.59-210.466-8.245-301.203
		c11.563-60.491,30.266-119.708,58.109-177.651L149.189,35.668z"/>
	<path fill-rule="evenodd" clip-rule="evenodd" fill="#E16024" d="M250.876,544.917c-48.68-6.882-69.01-31.274-60.988-73.178
		c4.359-22.771,29.503-9.493,24.363-5.568c7.836-9.639-4.044-31.334-4.259-61.432c-0.216-30.097,6.933-36.087,5.747-41.128
		c-2.43-10.329,1.499-16.255,4.822-18.528c3.738-2.558-4.822-29.385,0-54.234c5.769-5.026,12.432-10.692,19.989-16.997
		c3.804-0.08,5.769-0.08,5.893,0c0,0,6.268,0,18.802,0c7.058,2.37,12.928,7.537,17.609,15.502c0,0,6.776,0,8.588,1.495
		c0.367,0,2.428,7.808,2.4,7.831c-2.4,6.572-11.663,9.521-11.788,14.032c-0.124,4.511,1.879,8.522,1.943,15.937
		s-4.765,11.135-3.633,16.435c10.278,5.139,6.931,18.528,6.931,24.96c0,8.492,3.034,25.412,3.347,34.696
		c0.766,22.697-18.377,61.771-4.964,68.373c-2.824-5.918,25.162-14.891,25.162,9.9C310.84,520.904,290.852,541.539,250.876,544.917z
		"/>
	<path fill-rule="evenodd" clip-rule="evenodd" fill="#B94A20" d="M220.561,290.849c-10.464-9.765-10.895-28.759-6.407-31.153
		c3.15-1.68,11.949,3.039,26.396,14.156C232.709,286.349,226.046,292.015,220.561,290.849z"/>
	<path fill-rule="evenodd" clip-rule="evenodd" fill="#B94A20" d="M246.874,280.553c0.408-9.244,5.937-28.149,8.664-28.056
		c3.12,0.106,12.607,20.928,12.192,32.494c2.381,1.886,3.647,4.913,3.07,7.771c-8.336,3.037-19.927,1.532-25.564-2.858
		C240.59,286.285,246.805,280.507,246.874,280.553z"/>
	<g>
		<path fill-rule="evenodd" clip-rule="evenodd" fill="#E16024" d="M252.161,545.064c-0.008,0.019-7.475,0-7.475,0
			c-255.947,0-267.199-301.183-111.885-383.994c252.481-134.619,391.766,116.747,524.972-7.339
			c-74.733,168.295-340.509-31.423-448.337,65.158C101.607,315.471,326.473,366.583,252.161,545.064z"/>
		<path fill-rule="evenodd" clip-rule="evenodd" fill="#B94A20" d="M247.025,539.01c0.829,0.005-3.432,7.181-3.814,7.201
			c-255.948,0-267.75-303.536-110.745-384.795c258.577-133.829,378.688,112.811,524.971-7.338
			C522.136,280.729,398.524,46.702,137.629,171.795C1.464,237.083,74.695,537.937,247.025,539.01z"/>
		<path fill-rule="evenodd" clip-rule="evenodd" fill="#F2A050" d="M251.825,545.41c-0.008,0.019-7.474,0-7.474,0
			c66.438-141.046-175.381-216.364-45.375-334.568c116.139-105.595,371.063,94.778,458.461-56.765
			c-74.734,168.294-340.509-31.424-448.337,65.157S326.138,366.929,251.825,545.41z"/>
	</g>
</g>
<g id="Layer_2">
	<g>
		<path fill="#307084" d="M101.019,156.527c-0.223,0.796-0.028,1.141,0.728,1.352l1.335,0.373l0.984-3.521l1.635,0.603l-0.946,3.386
			l3.898,1.089l-0.524,1.875l-7.648-2.137c-1.416-0.396-1.805-1.086-1.379-2.61l1.191-4.263l1.672,0.467L101.019,156.527z"/>
		<path fill="#307084" d="M107.982,145.449c3.215,0.971,4.221,2.531,3.424,5.17c-0.809,2.679-2.498,3.383-5.753,2.4l-0.697-0.21
			c-2.907-0.877-4.059-2.438-3.25-5.118c0.793-2.626,2.632-3.342,5.552-2.461L107.982,145.449z M106.884,147.149
			c-1.594-0.481-2.999-0.671-3.516,1.043c-0.526,1.742,0.757,2.333,2.352,2.815l0.496,0.149c1.464,0.427,2.984,0.769,3.53-1.04
			c0.53-1.755-0.878-2.37-2.365-2.819L106.884,147.149z"/>
		<path fill="#307084" d="M114.663,140.015l-3.947,0.914l2.668,3.029l-0.743,2.292l-3.83-4.76l-5.589,1.486l0.738-2.278l3.638-0.779
			l-2.481-2.792l0.734-2.265l3.655,4.482l5.898-1.621L114.663,140.015z"/>
		<path fill="#307084" d="M114.323,129.021c2.421,0.834,3.292,2.556,2.544,4.726c-0.985,2.857-3.23,2.927-5.492,2.147l-0.794-0.274
			c-2.553-0.88-4.277-2.319-3.292-5.176c0.662-1.918,2.218-3.04,4.387-2.292l-0.593,1.72c-1.025-0.161-1.766,0.013-2.153,1.137
			c-0.593,1.72,0.804,2.261,2.233,2.753l0.82,0.283c1.27,0.438,2.669,0.802,3.244-0.865c0.461-1.336-0.277-1.901-1.493-2.454
			L114.323,129.021z"/>
		<path fill="#307084" d="M116.631,120.303c3.153,1.157,4.065,2.774,3.115,5.362c-0.964,2.628-2.691,3.231-5.884,2.06l-0.683-0.251
			c-2.851-1.046-3.909-2.672-2.945-5.299c0.945-2.575,2.823-3.183,5.687-2.132L116.631,120.303z M115.435,121.937
			c-1.563-0.574-2.955-0.846-3.572,0.835c-0.626,1.708,0.62,2.374,2.183,2.948l0.486,0.178c1.437,0.512,2.934,0.942,3.585-0.831
			c0.631-1.721-0.738-2.417-2.196-2.953L115.435,121.937z"/>
		<path fill="#307084" d="M123.641,115.211l-1.809-0.105l-1.218,3.118l1.406,1.136l-0.739,1.892l-7.344-6.297
			c-0.52-0.519-0.554-0.893-0.38-1.336c0.163-0.417,0.398-0.672,1.155-0.646l9.668,0.348L123.641,115.211z M116.036,114.586
			l3.23,2.585l0.876-2.244L116.036,114.586z"/>
		<path fill="#307084" d="M126.128,109.33c-0.58,1.396-2.224,3.199-4.459,2.27l0.599-1.661c1.008,0.419,1.914-0.448,2.269-1.301
			c0.44-1.06,0.271-1.782-0.466-2.088c-0.646-0.269-1.172,0.013-1.555,0.642l-0.778,1.435c-0.798,1.336-1.998,2.035-3.587,1.374
			c-1.642-0.682-2.233-2.504-1.353-4.624c0.714-1.719,2.32-2.628,3.884-1.978l-0.588,1.635c-0.98-0.195-1.5,0.438-1.753,1.045
			c-0.451,1.085-0.168,1.9,0.465,2.164c0.607,0.252,1.169-0.151,1.488-0.7l0.768-1.409c0.835-1.426,2.021-2.055,3.688-1.362
			C126.533,105.512,126.929,107.405,126.128,109.33z"/>
		<path fill="#307084" d="M122.062,97.708l7.537,3.319l-0.785,1.782l-7.536-3.32l-1.073,2.436l-1.589-0.7l2.936-6.665l1.589,0.7
			L122.062,97.708z"/>
	</g>
</g>
</svg>
