<?xml version="1.0" encoding="utf-8"?>
<!-- Generator: Adobe Illustrator 16.0.0, SVG Export Plug-In . SVG Version: 6.00 Build 0)  -->
<!DOCTYPE svg PUBLIC "-//W3C//DTD SVG 1.1//EN" "http://www.w3.org/Graphics/SVG/1.1/DTD/svg11.dtd">
<svg version="1.1" xmlns="http://www.w3.org/2000/svg" xmlns:xlink="http://www.w3.org/1999/xlink" x="0px" y="0px" width="1198px"
	 height="404px" viewBox="0 0 1198 404" enable-background="new 0 0 1198 404" xml:space="preserve">
<g id="Layer_3">
</g>
<g id="Layer_1">
	<path fill="#FFFFFF" d="M1076.002,306.497c0,11.067-4.058,19.751-12.173,26.052c-8.114,6.301-18.479,9.451-31.088,9.451
		c-9.979,0-19.629-2.738-28.95-8.218c-4.605-2.851-8.389-6.876-11.35-12.081S988,310.552,988,303.867l20.726-0.986
		c0,5.918,2.522,10.52,7.566,13.807c5.044,3.289,10.637,4.933,16.778,4.933c13.707,0,20.561-4.821,20.561-14.466
		c0-7.889-4.66-12.545-13.98-13.971l-19.081-1.973c-9.54-1.424-17.106-4.82-22.699-10.189s-8.389-13.096-8.389-23.176
		c0-10.082,4.002-18.408,12.008-24.984c8.004-6.574,18.12-9.861,30.347-9.861c12.229,0,22.069,3.096,29.526,9.287
		c7.456,6.189,11.185,14.162,11.185,23.914l-20.396,0.986c-1.864-9.533-8.279-14.299-19.245-14.299
		c-6.689,0-11.925,1.424-15.708,4.272c-3.784,2.849-5.677,6.218-5.677,10.106c0,3.892,1.371,6.959,4.112,9.205
		c2.742,2.246,6.143,3.644,10.198,4.191l18.752,1.973C1065.529,275.486,1076.002,286.773,1076.002,306.497z M1190,244.367h-31.417
		v96.646h-22.864v-96.646h-31.253v-20.381H1190V244.367z"/>
	<title>Logo_V1_larger</title>
	<desc>Created with Sketch.</desc>
	<path fill="#FFFFFF" d="M197.916,400.993c-29.979,0-59.601-10.916-85.667-31.566c-24.732-19.594-44.792-47.185-56.483-77.69
		c-11.742-30.635-14.739-62.784-8.667-92.97c6.818-33.896,24.416-63.788,52.305-88.847c28.222-25.358,61.474-37.686,101.655-37.686
		c42.478,0,87.18,13.56,130.409,26.673c41.747,12.663,81.177,24.624,117.443,24.624c27.803,0,50.804-7.268,70.003-22.171
		c-18.451,33.654-50.36,49.414-99.559,49.414c-28.7,0-60.251-5.149-90.763-10.128c-30.365-4.956-59.046-9.636-85.058-9.636
		c-30.789,0-52.308,6.641-67.721,20.899c-46.229,42.766-30.962,77.662-9.833,125.958c13.819,31.589,30.972,70.794,35.669,123.133
		C199.964,400.999,197.916,400.993,197.916,400.993z"/>
	<g>
		<path fill="#FFFFFF" d="M46.608,198.667c-6.091,30.28-3.086,62.524,8.69,93.248c11.724,30.589,31.838,58.255,56.64,77.903
			c3.146,2.492,6.345,4.84,9.589,7.048c19.792-48.659,26.881-117.421,21.258-206.298c-2.082-32.908-6.799-60.2-12.77-82.59
			c-10.958,5.675-21.249,12.854-30.947,21.569C71.098,134.68,53.448,164.664,46.608,198.667z"/>
		<path fill="#FFFFFF" d="M110.075,372.17c-25.217-19.978-45.665-48.098-57.578-79.181C26.5,225.16,43.16,155.75,97.063,107.315
			c10.066-9.044,20.755-16.465,32.147-22.302C112.096,23.217,85.506,0.098,80.084,0.285C72.65,0.541,13.146,35.372,2.512,170.786
			c-7.311,93.099,7.224,164.931,43.606,215.495l71.512-0.434c0.932-2.009,1.831-4.07,2.715-6.155
			C116.867,377.345,113.441,374.837,110.075,372.17z"/>
	</g>
	<path fill="#26C1EA" d="M520.021,98.56c1.185-0.967,2.356-1.966,3.511-2.994c-0.666,1.421-1.351,2.812-2.057,4.178L520.021,98.56z"
		/>
	<path fill="#FFFFFF" d="M197.916,400.993c-29.979,0-59.601-10.916-85.667-31.566c-24.732-19.594-44.792-47.185-56.483-77.69
		c-11.742-30.635-14.739-62.784-8.667-92.97c6.818-33.896,24.416-63.788,52.305-88.847c28.222-25.358,61.474-37.686,101.655-37.686
		c42.478,0,87.18,13.56,130.409,26.673c41.747,12.663,81.177,24.624,117.443,24.624c27.803,0,50.804-7.268,70.003-22.171
		c-18.451,33.654-50.36,49.414-99.559,49.414c-28.7,0-60.251-5.149-90.763-10.128c-30.365-4.956-59.046-9.636-85.058-9.636
		c-30.789,0-52.308,6.641-67.721,20.899c-46.229,42.766-30.962,77.662-9.833,125.958c13.819,31.589,30.972,70.794,35.669,123.133
		C199.964,400.999,197.916,400.993,197.916,400.993z"/>
	<g>
		<path fill="#FFFFFF" d="M169.589,289.568c0.17,22.938,9.238,39.655,3.954,47.527c1.088-3.628-16.922-11.663-20.222,5.051
			c-6.453,32.693,9.78,51.797,48.68,57.324c-4.52-47.719-19.333-84.464-32.366-114.475
			C169.595,286.438,169.577,287.955,169.589,289.568z"/>
		<path fill="#FFFFFF" d="M230.835,343.225c-10.854-5.182,4.637-35.845,4.017-53.656c-0.253-7.285-2.708-20.563-2.708-27.229
			c0-5.047,2.708-15.555-5.609-19.587c-0.915-4.159,2.992-7.078,2.94-12.896c-0.052-5.819-1.673-8.967-1.572-12.508
			c0.101-3.539,7.597-5.854,9.539-11.011c0.023-0.019-1.645-6.146-1.942-6.146c-1.466-1.174-6.949-1.174-6.949-1.174
			c-3.622-5.974-8.122-9.943-13.501-11.906c-2.189-8.305-6.847-17.194-8.708-17.255c-1.77-0.058-5,9.478-6.378,16.998
			c-0.586,0-0.878,0-0.878,0c-0.101-0.063-1.69-0.063-4.769,0c-0.027,0.021-0.054,0.043-0.08,0.064
			c0.009-0.014,0.019-0.028,0.028-0.043c-11.69-8.725-18.81-12.428-21.359-11.109c-3.632,1.879-3.283,16.784,5.184,24.447
			c0.015,0.003,0.03,0.006,0.045,0.009c-3.889,19.493,3.03,40.524,0.006,42.53c-2.688,1.784-5.868,6.436-3.902,14.54
			c0.784,3.229-2.927,6.961-4.221,21.073c13.651,31.219,30.165,69.796,34.985,120.98c30.79-3.231,46.193-19.344,46.193-48.354
			C251.197,331.537,228.55,338.579,230.835,343.225z"/>
	</g>
	<path fill="#26C1EA" d="M520.021,98.56c1.185-0.967,2.356-1.966,3.511-2.994c-0.666,1.421-1.351,2.812-2.057,4.178L520.021,98.56z"
		/>
	<path fill="#FFFFFF" d="M342.062,244.367h-41.242c-4.819,0-8.188,0.932-10.105,2.795c-1.917,1.861-2.875,5.095-2.875,9.697v16.271
		h42.885l-1.643,20.381h-41.242v47.503H265v-93.195c0-8.656,1.89-14.793,5.669-18.408c3.779-3.616,10.269-5.424,19.471-5.424h51.921
		V244.367z M467.273,277.076v8.875c0,19.615-3.697,33.859-11.092,42.734C448.788,337.562,436.931,342,420.609,342
		c-16.322,0-28.124-4.438-35.409-13.312s-10.927-23.285-10.927-43.229v-8.547c0-18.189,3.696-31.723,11.091-40.6
		c7.394-8.875,19.114-13.312,35.163-13.312c16.048,0,27.851,4.492,35.408,13.479C463.494,245.463,467.273,258.996,467.273,277.076z
		 M444.435,285.459v-6.082c0-10.52-1.313-18.902-3.942-25.146c-3.067-7.232-9.641-10.85-19.717-10.85
		c-10.188,0-16.814,3.616-19.883,10.85c-2.519,5.916-3.778,14.299-3.778,25.146v6.082c0,14.135,1.972,23.668,5.915,28.6
		c1.533,2.082,3.807,3.862,6.818,5.342c3.013,1.479,6.627,2.22,10.845,2.22s7.805-0.713,10.763-2.138
		c2.957-1.424,5.258-3.178,6.9-5.26c1.644-2.082,2.902-4.82,3.778-8.219C443.668,300.635,444.435,293.787,444.435,285.459z
		 M599.223,341.014h-28.262l-24.482-40.763l-24.152,40.763h-28.262l39.271-59.992l-36.807-57.035h28.098l21.853,37.804
		l22.182-37.804h27.934l-36.806,57.033L599.223,341.014z M690.751,295.648h21.196c0,14.902-3.726,26.354-11.174,34.353
		c-7.448,8-17.965,11.999-31.548,11.999c-29.904,0-44.856-17.587-44.856-52.762v-9.861c0-27.723,7.668-45.09,23.004-52.104
		c6.024-2.85,13.309-4.273,21.854-4.273c12.487,0,22.647,3.424,30.479,10.273c7.832,6.848,11.748,16.736,11.748,29.666h-21.36
		c-1.205-6.465-3.341-11.34-6.408-14.627c-3.066-3.287-7.887-4.933-14.459-4.933c-7.668,0-13.363,2.411-17.089,7.231
		c-2.629,3.396-4.162,9.205-4.601,17.424c-0.219,2.63-0.328,6.189-0.328,10.684v10.19c0,12.602,1.752,21.202,5.258,25.806
		c3.614,4.602,9.229,6.903,16.842,6.903c7.613,0,12.871-2.109,15.773-6.328C687.985,311.072,689.875,304.525,690.751,295.648z
		 M836.666,277.076v8.875c0,19.615-3.697,33.859-11.091,42.734C818.181,337.562,806.323,342,790.002,342
		s-28.124-4.438-35.409-13.312c-7.284-8.877-10.927-23.285-10.927-43.229v-8.547c0-18.189,3.697-31.723,11.092-40.6
		C762.151,227.438,773.872,223,789.92,223s27.852,4.492,35.408,13.479C832.887,245.463,836.666,258.996,836.666,277.076z
		 M813.827,285.459v-6.082c0-10.52-1.314-18.902-3.943-25.146c-3.066-7.232-9.64-10.85-19.718-10.85
		c-10.188,0-16.814,3.616-19.881,10.85c-2.521,5.916-3.779,14.299-3.779,25.146v6.082c0,14.135,1.973,23.668,5.915,28.6
		c1.533,2.082,3.808,3.862,6.818,5.342c3.013,1.479,6.628,2.22,10.845,2.22c4.218,0,7.805-0.713,10.763-2.138
		c2.957-1.424,5.259-3.178,6.9-5.26c1.644-2.082,2.903-4.82,3.779-8.219C813.061,300.635,813.827,293.787,813.827,285.459z
		 M965,341.014h-23.825l-6.572-20.217h-39.271l-6.407,20.217H865.1l37.463-107.166c1.644-3.725,3.479-6.301,5.505-7.725
		c2.025-1.425,4.519-2.137,7.477-2.137c2.957,0,5.34,0.656,7.147,1.973c1.808,1.314,3.423,3.943,4.847,7.889L965,341.014z
		 M929.345,301.566l-13.802-46.353l-14.46,46.353H929.345z"/>
	<path fill="#FFFFFF" d="M439.332,249.313c1.004,1.282,1.858,2.72,2.542,4.331c2.563,6.088,3.909,14.236,4.036,24.196
		c6.566-0.384,13.191-0.7,19.862-0.959c-0.019-11.656-1.665-21.417-4.895-29.194C453.665,248.14,446.479,248.682,439.332,249.313z"
		/>
	<path opacity="0.8" fill="#FFFFFF" d="M553.491,246.876c-4.72-0.216-9.456-0.392-14.206-0.526l7.203,12.46L553.491,246.876z"/>
	<path opacity="0.8" fill="#FFFFFF" d="M435.615,249.65c-10.997,1.023-21.894,2.259-32.634,3.71
		c-0.252,0.468-0.493,0.948-0.708,1.456c-2.428,5.704-3.659,13.967-3.659,24.561v2.346c14.431-1.529,29.219-2.771,44.299-3.697
		c-0.11-9.637-1.379-17.455-3.803-23.213C438.245,252.772,437.08,251.056,435.615,249.65z"/>
	<path fill="#FFFFFF" d="M556.875,247.036l-10.406,17.734l-10.702-18.514c-7.723-0.188-15.477-0.272-23.243-0.252l19.683,30.501
		c9.261,0.257,18.581,0.645,27.952,1.173l18.867-29.235C571.698,247.875,564.31,247.406,556.875,247.036z"/>
	<path opacity="0.8" fill="#FFFFFF" d="M464.035,247.495c3.118,7.959,4.707,17.747,4.734,29.273
		c19.554-0.699,39.526-0.851,59.801-0.364l-19.605-30.381C493.98,246.126,478.959,246.616,464.035,247.495z"/>
	<path fill="#FFFFFF" d="M377.622,257.239c-1.223,5.794-1.849,12.353-1.849,19.673v7.5c6.531-0.847,13.149-1.634,19.841-2.363
		v-2.672c0-10.878,1.285-19.461,3.814-25.526C392.078,254.88,384.802,256.009,377.622,257.239z"/>
	<path fill="#FFFFFF" d="M928.854,294.659l2.503,8.407h-32.312l2.782-8.919c-6.236-0.188-12.407-0.426-18.508-0.705l-9.4,26.891
		c6.471,0.522,12.986,0.999,19.536,1.423l0.779-2.459h41.459l1.438,4.426c6.779,0.164,13.561,0.256,20.331,0.271l-10.259-29.346
		C941.046,294.702,934.927,294.705,928.854,294.659z"/>
	<path opacity="0.8" fill="#FFFFFF" d="M332.349,271.63l-1.589,19.72c13.545-2.429,27.57-4.622,42.013-6.54v-7.897
		c0-7.031,0.562-13.409,1.672-19.119c-21.176,3.732-41.5,8.347-60.51,13.837H332.349z"/>
	<path opacity="0.8" fill="#FFFFFF" d="M902.338,322.297c10.488,0.599,21.043,1.054,31.611,1.343l-0.437-1.343H902.338z"/>
	<path fill="#FFFFFF" d="M266.5,288.421v17.04c6.44-1.7,13.053-3.352,19.839-4.947v-8.503h40.74
		c0.208-0.038,0.419-0.074,0.627-0.112l1.391-17.269H303.95C290.694,278.779,278.155,283.378,266.5,288.421z"/>
	<path fill="#FFFFFF" d="M289.339,299.817c7.222-1.669,14.628-3.273,22.208-4.807h-22.208V299.817z"/>
	<path opacity="0.8" fill="#FFFFFF" d="M925.715,294.631c-6.991-0.07-13.92-0.203-20.774-0.394l-1.818,5.829h24.211L925.715,294.631
		z"/>
	<path opacity="0.8" fill="#FFFFFF" d="M812.296,288.099c-15.785-1.661-30.622-3.552-44.29-5.567v2.928
		c0,9.965,0.997,17.589,2.96,22.799c11.395,1.715,23.313,3.395,35.646,4.979c1.486-1.903,2.651-4.461,3.463-7.607
		C811.407,300.962,812.148,295.078,812.296,288.099z"/>
	<path fill="#FFFFFF" d="M815.292,288.411c-0.167,7.132-0.945,13.181-2.323,18.005c-0.725,2.812-1.736,5.243-3.003,7.248
		c6.837,0.863,13.795,1.696,20.854,2.49c2.536-6.983,3.965-15.634,4.274-25.879C828.351,289.697,821.744,289.073,815.292,288.411z"
		/>
	<path opacity="0.8" fill="#FFFFFF" d="M838.086,290.527c-0.321,10.155-1.731,18.832-4.215,25.967
		c12.069,1.332,24.422,2.543,36.959,3.585l9.364-26.783C865.697,292.596,851.623,291.653,838.086,290.527z"/>
	<path opacity="0.8" fill="#FFFFFF" d="M263.5,306.256v-16.52c-21.78,9.696-40.333,20.989-54.5,33.865
		C225.165,317.495,243.447,311.642,263.5,306.256z"/>
	<path fill="#FFFFFF" d="M1007.283,304.451l-17.759,0.845c0.198,5.82,1.615,11.084,4.221,15.664
		c0.447,0.787,0.924,1.536,1.412,2.269c9.278-0.413,18.481-0.999,27.569-1.782c-2.53-0.85-4.957-2.005-7.254-3.502
		C1010.454,314.673,1007.704,310.14,1007.283,304.451z"/>
	<path fill="#FFFFFF" d="M1137.219,273.988v22.406c6.905-2.854,13.537-5.971,19.864-9.361v-18.009
		C1150.512,270.78,1143.89,272.438,1137.219,273.988z"/>
	<path opacity="0.8" fill="#FFFFFF" d="M1198,256.424c-12.371,4.365-25.036,8.283-37.917,11.798v17.171
		C1174.548,277.312,1187.332,267.726,1198,256.424z"/>
	<path fill="#FFFFFF" d="M1068.833,286.369c-12.892,1.733-25.827,3.162-38.744,4.318l9.716,1.004
		c10.194,1.558,15.326,6.757,15.326,15.463c0,4.838-1.566,8.574-4.643,11.22c7.853-1.074,15.583-2.315,23.161-3.742
		c0.563-2.532,0.853-5.236,0.853-8.135C1074.502,298.199,1072.627,291.508,1068.833,286.369z"/>
	<path opacity="0.8" fill="#FFFFFF" d="M986.5,303.867v-1.431l23.726-1.129v1.573c0,5.426,2.252,9.53,6.886,12.55
		c4.771,3.111,10.141,4.689,15.959,4.689c19.061,0,19.061-9.759,19.061-12.966c0-7.095-4.156-11.18-12.707-12.488l-19.009-1.963
		c-1.54-0.229-3.016-0.528-4.459-0.859c-22.094,1.646-44.063,2.527-65.586,2.774l10.271,29.38
		c10.405-0.013,20.777-0.212,31.063-0.621c-0.188-0.312-0.385-0.614-0.566-0.935C988.061,317.033,986.5,310.783,986.5,303.867z"/>
	<path opacity="0.8" fill="#FFFFFF" d="M1072.142,285.911c3.566,5.447,5.36,12.314,5.36,20.586c0,2.633-0.229,5.141-0.679,7.525
		c20.46-4.014,39.776-9.396,57.396-16.413v-22.938C1113.842,279.306,1093.06,283.012,1072.142,285.911z"/>
	<path opacity="0.8" fill="#FFFFFF" d="M563.602,277.875c19.583,1.176,39.373,2.961,59.267,5.432v-3.93
		c0-9.86,0.983-18.467,2.934-25.807c-14.1-2.026-28.606-3.646-43.381-4.856L563.602,277.875z"/>
	<path fill="#FFFFFF" d="M765.006,282.084c-6.937-1.045-13.562-2.12-19.84-3.214v6.589c0,7.009,0.468,13.325,1.385,18.953
		c6.771,1.114,13.802,2.231,21.052,3.337c-1.734-5.446-2.597-12.822-2.597-22.29V282.084z"/>
	<path fill="#FFFFFF" d="M625.869,279.377v4.316c6.604,0.842,13.218,1.762,19.84,2.757v-7.731c0-4.513,0.112-8.149,0.333-10.808
		c0.226-4.23,0.732-7.826,1.53-10.827c-6.164-1.109-12.429-2.134-18.776-3.076C626.852,261.155,625.869,269.614,625.869,279.377z"/>
	<path fill="#FFFFFF" d="M710.401,298.107c0.01-0.321,0.026-0.635,0.032-0.959h-5.204
		C706.922,297.465,708.647,297.784,710.401,298.107z"/>
	<path opacity="0.8" fill="#FFFFFF" d="M742.166,278.342c-19.037-3.391-34.739-6.924-46.195-10.185
		c-14.314-4.075-29.533-7.582-45.428-10.529c-0.78,2.85-1.287,6.349-1.508,10.487c-0.218,2.62-0.326,6.173-0.326,10.604v8.18
		c11.775,1.812,23.572,3.87,35.367,6.191c1.747,0.344,3.555,0.697,5.413,1.059h23.958v1.5c0,1.018-0.021,2.019-0.055,3.007
		c9.26,1.69,19.319,3.459,30.05,5.243c-0.843-5.545-1.276-11.687-1.276-18.439V278.342z"/>
	<path opacity="0.6" fill="#FFFFFF" d="M536.825,319.486c6.695,0.043,13.223,0.128,19.609,0.252l-9.946-16.56L536.825,319.486z"/>
	<path fill="#FFFFFF" d="M888.218,338.282c-6.562-0.495-13.215-1.062-19.975-1.715l-1.03,2.946h20.614L888.218,338.282z"/>
	<path fill="#FFFFFF" d="M689.881,308.38c-0.958,3.104-2.146,5.701-3.563,7.761c-3.185,4.63-8.907,6.978-17.009,6.978
		c-8.062,0-14.125-2.516-18.021-7.477c-2.247-2.95-3.796-7.272-4.683-13.053c-6.661-0.8-13.388-1.565-20.176-2.293
		c0.974,9.178,3.239,16.761,6.824,22.77c22.509,1.426,44.478,3.098,67.511,4.676c3.735-4.434,6.403-9.932,7.979-16.451
		C702.56,310.295,696.267,309.325,689.881,308.38z"/>
	<path fill="#FFFFFF" d="M266.5,336.015c6.736-0.723,13.343-1.416,19.839-2.083v-21.484c-6.805,1.879-13.434,3.89-19.839,6.062
		V336.015z"/>
	<path fill="#FFFFFF" d="M1137.219,313.669v8.525c6.896-2.818,13.531-5.882,19.864-9.211v-6.824
		C1150.833,308.74,1144.221,311.254,1137.219,313.669z"/>
	<path fill="#FFFFFF" d="M1032.741,340.5c11.482,0,21.143-2.72,28.745-8.085c-13.979,2.312-28.826,4.217-44.567,5.622
		C1022.105,339.671,1027.396,340.5,1032.741,340.5z"/>
	<path fill="#FFFFFF" d="M445.751,292.059c-0.314,5.562-1.039,10.381-2.175,14.357c-0.914,3.548-2.278,6.499-4.043,8.736
		c-1.777,2.253-4.276,4.164-7.427,5.682c-1.407,0.678-2.959,1.197-4.633,1.575c11.079-0.617,21.712-1.126,31.942-1.537
		c3.648-7.363,5.734-17.111,6.232-29.131C458.988,291.789,452.353,291.893,445.751,292.059z"/>
	<path fill="#FFFFFF" d="M401.821,314.948c-3.226-4.033-5.173-10.753-5.889-20.367c-6.647,0.519-13.227,1.115-19.738,1.787
		c0.995,12.354,3.779,22.002,8.31,28.821c11.464-0.84,22.482-1.573,33.096-2.21c-3.154-0.291-5.975-1.037-8.412-2.232
		C405.969,319.166,403.491,317.216,401.821,314.948z"/>
	<g opacity="0.6">
		<path fill="#FFFFFF" d="M468.648,291.726c-0.477,11.727-2.439,21.43-5.862,29.015c15.348-0.59,29.79-0.957,43.503-1.142
			l17.6-26.887C505.435,291.991,486.958,291.643,468.648,291.726z"/>
		<path fill="#FFFFFF" d="M669.309,320.118c7.055,0,11.945-1.91,14.537-5.679c1.185-1.72,2.186-3.911,3.022-6.506
			c-12.08-1.763-24.492-3.429-37.161-4.974c0.818,4.829,2.137,8.461,3.953,10.846C656.992,318.048,662.115,320.118,669.309,320.118z
			"/>
		<path fill="#FFFFFF" d="M570.99,295.33l16.655,25.338c14.509,0.579,28.43,1.33,42.121,2.179
			c-3.333-6.228-5.459-13.858-6.372-22.878C606.225,298.16,588.695,296.599,570.99,295.33z"/>
		<path fill="#FFFFFF" d="M757.489,320.018c-2.327-0.463-4.682-0.923-7.058-1.381c1.471,3.519,3.239,6.564,5.32,9.1
			c2.458,2.994,5.499,5.455,9.085,7.4c10.864,1.516,22.48,3.141,34.771,4.753c9.052-1.199,16.313-4.19,21.686-8.953
			C800.837,328.021,779.58,324.412,757.489,320.018z"/>
		<path fill="#FFFFFF" d="M527.384,292.852l-17.48,26.703c8.055-0.09,15.858-0.116,23.444-0.086l13.122-22.146l13.506,22.488
			c8.208,0.179,16.184,0.421,23.984,0.714l-16.739-25.466C554.011,294.146,540.708,293.405,527.384,292.852z"/>
		<path fill="#FFFFFF" d="M753.434,329.64c-2.613-3.186-4.767-7.089-6.475-11.663c-11.265-2.139-23.037-4.219-35.253-6.209
			c-1.487,6.273-3.929,11.694-7.311,16.221c0.666,0.045,1.333,0.09,2.001,0.135c13.986,0.939,31.384,3.252,51.609,6.062
			C756.329,332.817,754.801,331.306,753.434,329.64z"/>
		<path fill="#FFFFFF" d="M263.5,336.339v-16.775c-17.617,6.171-33.607,13.494-47.5,22.139
			C232.483,339.765,248.296,337.981,263.5,336.339z"/>
		<path fill="#FFFFFF" d="M1067.449,331.403c-0.85,0.808-1.744,1.588-2.7,2.33c-8.346,6.48-19.114,9.767-32.008,9.767
			c-7.758,0-15.394-1.642-22.787-4.883c-13.832,1.087-28.306,1.806-43.48,2.067l0.64,1.829h-27.028l-0.595-1.829
			c-15.424-0.261-31.489-0.97-48.197-2.176l-1.27,4.005h-27.037l2.186-6.251c-12.996-1.295-26.36-2.889-40.089-4.797
			c-4.262,4.401-9.763,7.599-16.442,9.588c51.651,6.543,114.262,12.349,182.322,8.938c51.579-2.585,101.93-10.298,143.256-26.589
			v-8.72C1114.816,321.197,1092.599,326.96,1067.449,331.403z"/>
		<path fill="#FFFFFF" d="M1192,289c-9.213,5.412-19.849,10.785-31.917,15.909v6.457C1171.9,304.899,1182.636,297.491,1192,289z"/>
		<path fill="#FFFFFF" d="M437.178,313.294c1.506-1.907,2.684-4.486,3.503-7.664c1.067-3.736,1.75-8.261,2.059-13.491
			c-14.815,0.415-29.456,1.14-43.813,2.209c0.671,8.919,2.435,15.222,5.274,18.774c1.417,1.923,3.528,3.566,6.308,4.932
			c2.793,1.371,6.22,2.066,10.184,2.066c3.969,0,7.372-0.669,10.112-1.989C433.541,316.813,435.685,315.186,437.178,313.294z"/>
		<path fill="#FFFFFF" d="M289.339,311.62v22.004c33.569-3.425,63.973-6.112,91.772-8.184c-4.273-7.118-6.919-16.741-7.9-28.763
			C343.324,299.882,315.017,304.748,289.339,311.62z"/>
	</g>
</g>
<g id="Layer_2">
</g>
</svg>
