<?xml version="1.0" encoding="UTF-8"?>
<svg width="989px" height="128px" viewBox="0 0 989 128" version="1.1" xmlns="http://www.w3.org/2000/svg" xmlns:xlink="http://www.w3.org/1999/xlink">
    <!-- Generator: Sketch 46 (44423) - http://www.bohemiancoding.com/sketch -->
    <title>LogoTypeOnly</title>
    <desc>Created with Sketch.</desc>
    <defs></defs>
    <g id="Page-1" stroke="none" stroke-width="1" fill="none" fill-rule="evenodd">
        <g id="Logo-final-version" transform="translate(-193.000000, -1449.000000)">
            <g id="LogoTypeOnly" transform="translate(193.000000, 1449.000000)">
                <path d="M502.029166,78.842596 C652.396842,121.649484 902.470218,102.041537 989,23.3989157 C886.805315,62 700.230802,90.5761753 513.92378,53.9101929 C409.793168,33.4168635 104.135265,-19.7411573 0,90.5761753 C182.636993,26.1321622 428.880713,58.0185883 502.029166,78.842596 Z" id="wave-top" fill="#CCF6FF" fill-rule="nonzero" transform="translate(494.500000, 62.000000) scale(-1, -1) translate(-494.500000, -62.000000) "></path>
                <path d="M867.001473,83.4972376 C867.001473,94.5645121 862.944125,103.248357 854.829307,109.549033 C846.714489,115.849709 836.351802,119 823.740936,119 C813.761903,119 804.111994,116.260617 794.790919,110.781768 C790.185211,107.932767 786.402008,103.905873 783.441196,98.7009669 C780.480384,93.4960605 779,87.5515988 779,80.8674033 L799.725581,79.8812155 C799.725581,85.7983721 802.247716,90.400536 807.292062,93.6878453 C812.336409,96.9751546 817.92897,98.6187845 824.069913,98.6187845 C837.777377,98.6187845 844.631005,93.7974699 844.631005,84.1546961 C844.631005,76.2651539 839.970538,71.6082023 830.649463,70.1837017 L811.56877,68.211326 C802.028375,66.7868253 794.461969,63.38999 788.869324,58.0207182 C783.276679,52.6514465 780.480399,44.9263856 780.480399,34.8453039 C780.480399,24.7642222 784.482918,16.436497 792.488076,9.86187845 C800.493235,3.28725994 810.609191,0 822.836248,0 C835.063305,0 844.905116,3.09550311 852.361976,9.28660221 C859.818836,15.4777013 863.54721,23.4493067 863.54721,33.2016575 L843.150607,34.1878453 C841.286392,24.6546485 834.871395,19.8881215 823.905425,19.8881215 C817.216183,19.8881215 811.98001,21.3126009 808.19675,24.1616022 C804.413491,27.0106036 802.521889,30.380045 802.521889,34.2700276 C802.521889,38.1600102 803.892615,41.2281195 806.634108,43.4744475 C809.3756,45.7207755 812.775,47.117861 816.832409,47.6657459 L835.584125,49.6381215 C856.529129,52.4871229 867.001473,63.773382 867.001473,83.4972376 Z M981,21.3674033 L949.582652,21.3674033 L949.582652,118.013812 L926.718717,118.013812 L926.718717,21.3674033 L895.465858,21.3674033 L895.465858,0.986187845 L981,0.986187845 L981,21.3674033 Z" id="logo" fill="#333333"></path>
                <path d="M441.510706,96.9824183 C597.430644,128 865.040853,148.694046 983,75.2981857 C701.575539,108.380569 613.229818,96.9824183 492.604059,88.8774083 C438.159794,85.2192236 332.158311,60.7878017 208.036961,67.0090755 C128.630364,70.9891335 52.1092439,87.0977804 7,128 C73.5984648,88.8774083 213.814482,51.6861828 441.510706,96.9824183 Z" id="wave-bottom" fill="#8ACFE6" fill-rule="nonzero" transform="translate(495.000000, 97.000000) scale(-1, -1) translate(-495.000000, -97.000000) "></path>
                <path d="M133.06142,21.3674033 L91.8195941,21.3674033 C86.9998081,21.3674033 83.6314855,22.2987936 81.7145251,24.1616022 C79.7975648,26.0244108 78.839099,29.2568831 78.839099,33.859116 L78.839099,50.1312155 L121.724026,50.1312155 L120.080925,70.5124309 L78.839099,70.5124309 L78.839099,118.013812 L56,118.013812 L56,24.8190608 C56,16.1624797 57.8895469,10.0262612 61.6686972,6.41022099 C65.4478476,2.79418081 71.9380303,0.986187845 81.1394399,0.986187845 L133.06142,0.986187845 L133.06142,21.3674033 Z M258.273515,54.0759669 L258.273515,62.9516575 C258.273515,82.565936 254.576575,96.8107291 247.182585,105.686464 C239.788595,114.562199 227.931004,119 211.609456,119 C195.287908,119 183.485086,114.562199 176.200637,105.686464 C168.916188,96.8107291 165.274018,82.401573 165.274018,62.4585635 L165.274018,53.9116022 C165.274018,35.7218243 168.970957,22.1892709 176.364947,13.3135359 C183.758937,4.43780093 195.479605,0 211.527301,0 C227.574998,0 239.377819,4.49258859 246.93612,13.4779006 C254.494421,22.4632125 258.273515,35.995766 258.273515,54.0759669 Z M235.434416,62.4585635 L235.434416,56.3770718 C235.434416,45.8576822 234.119948,37.4751694 231.490974,31.2292818 C228.423837,23.9972014 221.851501,20.3812155 211.773766,20.3812155 C201.586491,20.3812155 194.959385,23.9972014 191.892248,31.2292818 C189.372815,37.1464384 188.113117,45.5289513 188.113117,56.3770718 L188.113117,62.4585635 C188.113117,76.5939933 190.084818,86.1270472 194.028279,91.058011 C195.561847,93.1399736 197.834781,94.9205727 200.847147,96.3998619 C203.859513,97.879151 207.474298,98.6187845 211.691611,98.6187845 C215.908924,98.6187845 219.496324,97.9065449 222.45392,96.4820442 C225.411516,95.0575435 227.711834,93.3043382 229.354943,91.2223757 C230.998052,89.1404132 232.25775,86.4010299 233.134075,83.0041436 C234.667643,77.6348719 235.434416,70.7864136 235.434416,62.4585635 Z M390.222321,118.013812 L361.96099,118.013812 L337.478791,77.2513812 L313.325211,118.013812 L285.06388,118.013812 L324.333985,58.0207182 L287.528531,0.986187845 L315.625552,0.986187845 L337.478791,38.7900552 L359.660649,0.986187845 L387.59336,0.986187845 L350.787906,58.0207182 L390.222321,118.013812 Z M481.750852,72.6491713 L502.946851,72.6491713 C502.946851,87.5516399 499.222526,99.002262 491.773766,107.001381 C484.325006,115.0005 473.809267,119 460.226234,119 C430.321652,119 415.369586,101.413159 415.369586,66.2389503 L415.369586,56.3770718 C415.369586,28.6540971 423.037312,11.2864071 438.372995,4.27348066 C444.397728,1.42447931 451.682068,0 460.226234,0 C472.713861,0 482.873599,3.42422911 490.705751,10.2727901 C498.537903,17.121351 502.45392,27.0105247 502.45392,39.9406077 L481.093612,39.9406077 C479.888666,33.4755662 477.752656,28.599464 474.685519,25.3121547 C471.618383,22.0248454 466.798669,20.3812155 460.226234,20.3812155 C452.558392,20.3812155 446.862367,22.7918728 443.137987,27.6132597 C440.509013,31.0101459 438.975468,36.8176385 438.537305,45.0359116 C438.318224,47.665759 438.208685,51.2269573 438.208685,55.7196133 L438.208685,65.910221 C438.208685,78.5115731 439.961308,87.1132367 443.466607,91.7154696 C447.081447,96.3177026 452.695318,98.6187845 460.308389,98.6187845 C467.92146,98.6187845 473.179329,96.5094594 476.082155,92.2907459 C478.984981,88.0720323 480.874528,81.5249063 481.750852,72.6491713 Z M627.666015,54.0759669 L627.666015,62.9516575 C627.666015,82.565936 623.969075,96.8107291 616.575085,105.686464 C609.181095,114.562199 597.323504,119 581.001956,119 C564.680408,119 552.877587,114.562199 545.593137,105.686464 C538.308688,96.8107291 534.666518,82.401573 534.666518,62.4585635 L534.666518,53.9116022 C534.666518,35.7218243 538.363457,22.1892709 545.757447,13.3135359 C553.151437,4.43780093 564.872105,0 580.919801,0 C596.967498,0 608.770319,4.49258859 616.32862,13.4779006 C623.886921,22.4632125 627.666015,35.995766 627.666015,54.0759669 Z M604.826916,62.4585635 L604.826916,56.3770718 C604.826916,45.8576822 603.512448,37.4751694 600.883474,31.2292818 C597.816337,23.9972014 591.244001,20.3812155 581.166266,20.3812155 C570.978991,20.3812155 564.351885,23.9972014 561.284748,31.2292818 C558.765315,37.1464384 557.505617,45.5289513 557.505617,56.3770718 L557.505617,62.4585635 C557.505617,76.5939933 559.477318,86.1270472 563.420779,91.058011 C564.954348,93.1399736 567.227281,94.9205727 570.239647,96.3998619 C573.252013,97.879151 576.866798,98.6187845 581.084111,98.6187845 C585.301424,98.6187845 588.888825,97.9065449 591.84642,96.4820442 C594.804016,95.0575435 597.104334,93.3043382 598.747443,91.2223757 C600.390552,89.1404132 601.65025,86.4010299 602.526575,83.0041436 C604.060143,77.6348719 604.826916,70.7864136 604.826916,62.4585635 Z M756,118.013812 L732.175041,118.013812 L725.602638,97.7969613 L686.332533,97.7969613 L679.92444,118.013812 L656.099481,118.013812 L693.562175,10.8480663 C695.205284,7.12244914 697.040062,4.54742885 699.066563,3.12292818 C701.093063,1.6984275 703.585075,0.986187845 706.54267,0.986187845 C709.500266,0.986187845 711.882739,1.64363983 713.690158,2.95856354 C715.497578,4.27348724 717.113278,6.90329519 718.537305,10.8480663 L756,118.013812 Z M720.344716,78.5662983 L706.54267,32.2154696 L692.083385,78.5662983 L720.344716,78.5662983 Z" id="logo" fill="#333333"></path>
            </g>
        </g>
    </g>
</svg>